<?xml version="1.0" encoding="UTF-8" standalone="no"?>
<!DOCTYPE svg PUBLIC "-//W3C//DTD SVG 1.1//EN" "http://www.w3.org/Graphics/SVG/1.1/DTD/svg11.dtd">
<svg width="100%" height="100%" viewBox="0 0 256 256" version="1.1" xmlns="http://www.w3.org/2000/svg" xmlns:xlink="http://www.w3.org/1999/xlink" xml:space="preserve" style="fill-rule:evenodd;clip-rule:evenodd;stroke-linejoin:round;stroke-miterlimit:1.41421;">
    <path id="mainsymbolpath" d="M128,38C78.294,38 38,78.294 38,128C38,177.706 78.294,218 128,218C177.706,218 218,177.706 218,128C218,78.294 177.706,38 128,38ZM128,100.875C142.977,100.875 155.125,113.023 155.125,128C155.125,142.977 142.977,155.125 128,155.125C113.023,155.125 100.875,142.977 100.875,128C100.875,113.023 113.023,100.875 128,100.875ZM49.688,133.906L90.094,133.906C92.933,152.287 108.824,166.344 128,166.344C147.176,166.344 163.067,152.287 165.906,133.906L206.313,133.906C203.286,174.522 169.389,206.563 128,206.563C86.611,206.563 52.714,174.522 49.688,133.906Z" style="fill:white;fill-opacity:0.913043;fill-rule:nonzero;"/>
</svg>
