<?xml version="1.0" encoding="UTF-8" standalone="no"?><!DOCTYPE svg PUBLIC "-//W3C//DTD SVG 1.1//EN" "http://www.w3.org/Graphics/SVG/1.1/DTD/svg11.dtd"><svg width="100%" height="100%" viewBox="0 0 256 256" version="1.1" xmlns="http://www.w3.org/2000/svg" xmlns:xlink="http://www.w3.org/1999/xlink" xml:space="preserve" style="fill-rule:evenodd;clip-rule:evenodd;stroke-linejoin:round;stroke-miterlimit:1.41421;"><path id="mainsymbolpath" d="M128,38c-49.706,0 -90,40.294 -90,90c0,49.706 40.294,90 90,90c49.706,0 90,-40.294 90,-90c0,-49.706 -40.294,-90 -90,-90Zm0,62.875c14.977,0 27.125,12.148 27.125,27.125c0,14.977 -12.148,27.125 -27.125,27.125c-14.977,0 -27.125,-12.148 -27.125,-27.125c0,-14.977 12.148,-27.125 27.125,-27.125Zm-78.312,33.031l40.406,0c2.839,18.381 18.73,32.438 37.906,32.438c19.176,0 35.067,-14.057 37.906,-32.438l40.407,0c-3.027,40.616 -36.924,72.657 -78.313,72.657c-41.389,0 -75.286,-32.041 -78.312,-72.657Z" style="fill:#d82255;fill-opacity:0.909804;fill-rule:nonzero;"/></svg>